<?xml version="1.0" encoding="UTF-8"?>
<svg xmlns="http://www.w3.org/2000/svg" 
     viewBox="0 0 730 730" 
     width="730" height="730">
  <!-- White shapes on transparent background -->
  <g transform="translate(0.000000,730.000000) scale(0.100000,-0.100000)"
     fill="#063957" stroke="none">
    <path d="M3505 7044 c-301 -34 -528 -104 -757 -236 -543 -311 -888 -848 -948
-1479 -8 -79 -10 -621 -8 -1759 4 -1477 6 -1655 21 -1747 56 -347 177 -622
385 -882 357 -446 880 -701 1442 -705 180 -1 294 14 475 59 445 113 834 395
1098 795 166 252 258 529 286 865 9 103 12 567 9 1775 -4 1803 1 1668 -67
1932 -71 275 -220 550 -417 770 -276 306 -675 527 -1078 594 -91 15 -366 26
-441 18z m429 -368 c153 -31 337 -102 481 -185 176 -102 377 -289 487 -452
195 -293 291 -648 259 -962 -29 -282 -118 -496 -290 -694 -128 -148 -310 -277
-733 -519 -149 -85 -319 -186 -379 -224 l-107 -68 -150 94 c-82 51 -250 150
-373 219 -531 299 -738 480 -871 760 -61 128 -94 247 -115 404 -14 107 -14
145 -4 254 67 722 608 1288 1326 1386 99 14 374 6 469 -13z m-1448 -2792 c139
-99 268 -179 494 -306 266 -150 362 -210 353 -218 -4 -4 -35 -29 -68 -56 -459
-366 -705 -728 -756 -1110 -14 -106 -8 -154 24 -203 47 -70 143 -92 219 -49
58 33 78 73 88 176 22 241 139 452 385 697 258 256 509 430 1130 781 212 120
420 252 530 338 33 26 111 97 173 158 l112 112 0 -1074 c-1 -1069 -4 -1196
-36 -1355 -69 -342 -287 -677 -583 -901 -156 -117 -394 -224 -601 -269 -118
-26 -391 -31 -524 -10 -328 51 -603 192 -842 430 -271 270 -408 561 -443 945
-7 73 -11 506 -11 1174 l0 1058 128 -123 c71 -68 173 -156 228 -195z M3471
5999 c-280 -33 -520 -139 -686 -304 -98 -97 -143 -169 -170 -270 -92 -355 252
-710 775 -799 l75 -12 3 -112 3 -112 179 0 180 0 0 110 c0 106 1 110 23 114
12 2 69 14 125 26 57 12 105 20 106 18 2 -2 34 -63 72 -135 l69 -133 203 0
c111 0 202 2 202 4 0 3 -54 95 -121 206 -67 111 -119 202 -118 204 205 143
303 290 316 471 10 141 -44 278 -157 398 -83 89 -163 145 -294 208 -220 105
-514 149 -785 118z m597 -284 c249 -40 424 -148 487 -298 25 -61 36 -156 24
-227 -19 -124 -86 -224 -191 -287 l-53 -33 -59 24 -59 24 44 12 c71 19 132 55
176 103 53 57 73 104 80 188 14 167 -67 287 -226 333 -46 13 -117 16 -438 16
l-383 0 0 -375 c0 -206 -2 -375 -5 -375 -3 0 -43 15 -90 34 -154 62 -276 160
-324 260 -126 260 112 523 543 601 100 19 361 18 474 0z m27 -409 c63 -27 76
-106 26 -157 l-29 -29 -131 0 -131 0 0 93 c0 52 3 97 7 100 13 14 223 7 258
-7z m-110 -486 c16 -16 27 -31 24 -34 -2 -2 -43 -6 -91 -10 l-88 -6 0 40 0 40
63 0 c57 0 66 -3 92 -30z"/>
  </g>
</svg>